<svg width="20" height="20" viewBox="0 0 20 20" fill="none" xmlns="http://www.w3.org/2000/svg">
<path d="M9 1.18014V18.8201C9 19.4601 8.41 19.9401 7.79 19.8001C3.32 18.8001 0 14.7901 0 10.0001C0 5.21014 3.32 1.20014 7.79 0.200137C8.41 0.0601374 9 0.540137 9 1.18014ZM11.03 1.18014V7.99014C11.03 8.54014 11.48 8.99014 12.03 8.99014H18.82C19.46 8.99014 19.94 8.40014 19.8 7.77014C18.95 4.01014 16 1.05014 12.25 0.200137C11.62 0.0601374 11.03 0.540137 11.03 1.18014ZM11.03 12.0101V18.8201C11.03 19.4601 11.62 19.9401 12.25 19.8001C16.01 18.9501 18.96 15.9801 19.81 12.2201C19.95 11.6001 19.46 11.0001 18.83 11.0001H12.04C11.48 11.0101 11.03 11.4601 11.03 12.0101Z" fill="white"/>
</svg>
