<svg width="20" height="18" viewBox="0 0 20 18" fill="none" xmlns="http://www.w3.org/2000/svg">
<path d="M11 13.0001H9C8.45 13.0001 8 12.5501 8 12.0001H1.01V16.0001C1.01 17.1001 1.91 18.0001 3.01 18.0001H17C18.1 18.0001 19 17.1001 19 16.0001V12.0001H12C12 12.5501 11.55 13.0001 11 13.0001ZM18 4.00012H14C14 1.79012 12.21 0.00012207 10 0.00012207C7.79 0.00012207 6 1.79012 6 4.00012H2C0.9 4.00012 0 4.90012 0 6.00012V9.00012C0 10.1101 0.89 11.0001 2 11.0001H8V10.0001C8 9.45012 8.45 9.00012 9 9.00012H11C11.55 9.00012 12 9.45012 12 10.0001V11.0001H18C19.1 11.0001 20 10.1001 20 9.00012V6.00012C20 4.90012 19.1 4.00012 18 4.00012ZM8 4.00012C8 2.90012 8.9 2.00012 10 2.00012C11.1 2.00012 12 2.90012 12 4.00012H7.99H8Z" fill="white"/>
</svg>
