<svg width="15" height="14" viewBox="0 0 15 14" fill="none" xmlns="http://www.w3.org/2000/svg">
<path d="M12 12.25H3C2.5875 12.25 2.25 11.9125 2.25 11.5V2.5C2.25 2.0875 2.5875 1.75 3 1.75H6.75C7.1625 1.75 7.5 1.4125 7.5 1C7.5 0.5875 7.1625 0.25 6.75 0.25H2.25C1.4175 0.25 0.75 0.925 0.75 1.75V12.25C0.75 13.075 1.425 13.75 2.25 13.75H12.75C13.575 13.75 14.25 13.075 14.25 12.25V7.75C14.25 7.3375 13.9125 7 13.5 7C13.0875 7 12.75 7.3375 12.75 7.75V11.5C12.75 11.9125 12.4125 12.25 12 12.25ZM9 1C9 1.4125 9.3375 1.75 9.75 1.75H11.6925L4.845 8.5975C4.5525 8.89 4.5525 9.3625 4.845 9.655C5.1375 9.9475 5.61 9.9475 5.9025 9.655L12.75 2.8075V4.75C12.75 5.1625 13.0875 5.5 13.5 5.5C13.9125 5.5 14.25 5.1625 14.25 4.75V1C14.25 0.5875 13.9125 0.25 13.5 0.25H9.75C9.3375 0.25 9 0.5875 9 1Z" fill="#7DD3FC"/>
</svg>
