<svg width="4" height="16" viewBox="0 0 4 16" fill="none" xmlns="http://www.w3.org/2000/svg">
<path d="M2 4.00006C3.1 4.00006 4 3.10006 4 2.00006C4 0.900061 3.1 6.10352e-05 2 6.10352e-05C0.9 6.10352e-05 0 0.900061 0 2.00006C0 3.10006 0.9 4.00006 2 4.00006ZM2 6.00006C0.9 6.00006 0 6.90006 0 8.00006C0 9.10006 0.9 10.0001 2 10.0001C3.1 10.0001 4 9.10006 4 8.00006C4 6.90006 3.1 6.00006 2 6.00006ZM2 12.0001C0.9 12.0001 0 12.9001 0 14.0001C0 15.1001 0.9 16.0001 2 16.0001C3.1 16.0001 4 15.1001 4 14.0001C4 12.9001 3.1 12.0001 2 12.0001Z" fill="white"/>
</svg>
