<svg width="20" height="18" viewBox="0 0 20 18" fill="none" xmlns="http://www.w3.org/2000/svg">
<path d="M2.47 18.0001H17.53C19.07 18.0001 20.03 16.3301 19.26 15.0001L11.73 1.99005C10.96 0.660054 9.04 0.660054 8.27 1.99005L0.739999 15.0001C-0.0300008 16.3301 0.929999 18.0001 2.47 18.0001ZM10 11.0001C9.45 11.0001 9 10.5501 9 10.0001V8.00005C9 7.45005 9.45 7.00005 10 7.00005C10.55 7.00005 11 7.45005 11 8.00005V10.0001C11 10.5501 10.55 11.0001 10 11.0001ZM11 15.0001H9V13.0001H11V15.0001Z" fill="#FB923C"/>
</svg>
