<svg width="80" height="64" viewBox="0 0 80 64" fill="none" xmlns="http://www.w3.org/2000/svg">
<path d="M54.7706 29.4381C54.2403 28.9672 53.7004 28.5339 53.6811 27.7899C53.2762 28.7977 53.5172 29.683 54.3657 30.3329C54.7128 30.606 54.9056 30.9451 54.8477 31.3407C54.8188 31.5479 54.6646 31.8211 54.4814 31.9152C54.1825 32.0565 54.0379 31.7834 53.874 31.5856C53.4305 31.0581 52.9966 30.5213 52.4952 30.0503C52.2542 29.8243 51.8685 29.7113 51.5407 29.5512C52.4181 30.7285 52.7556 31.6138 52.6591 32.8477C52.6399 33.1585 52.5531 33.5164 52.3699 33.7613C51.7432 34.5807 51.0201 35.3436 50.7501 36.342C50.6152 35.6733 50.8755 35.0799 51.1165 34.4865C51.8878 32.6216 51.5986 30.9451 50.056 29.4852C49.4389 28.9013 48.658 28.4398 48.5133 27.545C48.388 28.2231 48.6676 28.7788 49.034 29.3157C49.3521 29.7678 49.6992 30.2105 50.0174 30.6626C50.4223 31.2371 50.7598 31.8399 50.7984 32.5463C50.8273 33.0926 50.7309 33.6012 50.3066 34.0627C50.2584 33.9779 50.2102 33.9308 50.1909 33.8837C49.9403 33.0361 49.4486 32.3014 48.7929 31.6609C48.3205 31.1994 47.9445 30.6908 47.8866 30.0315C47.8577 29.6736 47.5781 29.5794 47.2021 29.7301C47.0093 29.8055 46.8261 29.8996 46.6429 29.9844C46.5947 29.9467 46.5561 29.9091 46.5079 29.8808C46.7104 29.6171 46.9032 29.3439 47.125 29.0991C47.26 28.9578 47.4624 28.8542 47.6263 28.7411C47.4142 28.6658 47.2021 28.5905 46.9707 28.5151C47.4046 28.0159 47.8674 27.5167 48.2916 26.9799C48.9183 26.1981 48.8797 25.746 48.1663 24.9548C47.9156 25.1432 47.6938 25.3128 47.4239 25.5105C47.5299 25.2374 47.607 25.0302 47.6842 24.8324C46.1126 25.3693 44.8303 26.3111 43.1238 26.3017V26.4524C43.7409 26.5843 44.3675 26.7256 44.9653 26.848C44.5025 27.2342 43.8565 27.1211 43.2106 27.0269C43.7698 27.6203 44.5314 27.5544 45.3799 27.5732C44.6664 28.0442 44.0012 28.1289 43.2781 27.9594C42.2464 27.7145 41.4366 27.1306 40.6267 26.5466C40.4339 26.4053 40.2217 26.2735 40 26.1699C39.7782 26.2735 39.5661 26.4147 39.3733 26.5466C38.5634 27.14 37.7535 27.7145 36.7219 27.9594C35.9988 28.1289 35.3336 28.0442 34.6201 27.5732C35.4685 27.5544 36.2302 27.6203 36.7894 27.0269C36.1434 27.1211 35.4975 27.2342 35.0347 26.848C35.6324 26.7161 36.2591 26.5843 36.8762 26.4524V26.3017C35.1696 26.3111 33.8777 25.3693 32.3158 24.8324C32.3929 25.0396 32.4701 25.2468 32.5761 25.5105C32.3158 25.3128 32.0844 25.1432 31.8337 24.9548C31.1203 25.746 31.0817 26.1981 31.7084 26.9799C32.1326 27.5167 32.605 28.0159 33.0293 28.5151C32.8075 28.5905 32.5954 28.6658 32.3736 28.7411C32.5472 28.8636 32.74 28.9578 32.875 29.0991C33.1064 29.3439 33.2896 29.6171 33.492 29.8808C33.4438 29.9185 33.4053 29.9562 33.3571 29.9844C33.1739 29.8996 32.9907 29.8055 32.7979 29.7301C32.4122 29.5794 32.1423 29.6736 32.1133 30.0315C32.0555 30.6908 31.6795 31.1994 31.207 31.6609C30.5514 32.3108 30.0597 33.0361 29.809 33.8837C29.7898 33.9308 29.7512 33.9779 29.6933 34.0627C29.2691 33.6012 29.1727 33.0832 29.2016 32.5463C29.2306 31.8399 29.5776 31.2465 29.9826 30.6626C30.3007 30.2105 30.6478 29.7772 30.966 29.3157C31.3324 28.7788 31.612 28.2231 31.4866 27.545C31.3517 28.4398 30.5611 28.9013 29.944 29.4852C28.3918 30.9451 28.1122 32.6311 28.8835 34.4865C29.1245 35.0799 29.3848 35.6733 29.2498 36.342C28.9702 35.3436 28.2568 34.5807 27.6301 33.7613C27.4373 33.5164 27.3601 33.1585 27.3408 32.8477C27.2444 31.6233 27.5819 30.7379 28.4592 29.5512C28.1411 29.7113 27.7458 29.8149 27.5047 30.0503C27.0034 30.5307 26.5695 31.0581 26.126 31.5856C25.9621 31.7834 25.8175 32.0659 25.5186 31.9152C25.3258 31.8211 25.1812 31.5479 25.1522 31.3407C25.0944 30.9451 25.2872 30.606 25.6343 30.3329C26.4828 29.683 26.7238 28.7977 26.3188 27.7899C26.2899 28.5339 25.7596 28.9672 25.2294 29.4381C24.9498 29.683 24.7473 30.0786 24.6702 30.4365C24.3616 31.887 24.7087 33.2056 25.8271 34.3358C25.8946 34.4018 25.9814 34.4583 26.1164 34.5619C26.0971 33.8837 25.885 33.2339 26.531 32.6593C26.2803 33.7519 26.637 34.5996 27.4276 35.3248C27.9386 35.7957 27.9579 36.3985 27.8422 36.9919C27.8036 37.1991 27.6012 37.4252 27.3987 37.557C27.2541 37.6512 26.9745 37.6701 26.8009 37.6041C26.6852 37.5665 26.6563 37.3216 26.5406 37.0767C26.396 37.1709 26.1067 37.2745 26.0682 37.4252C26.0007 37.6701 26.0296 37.9903 26.1646 38.2069C26.2417 38.3294 26.5985 38.3859 26.8202 38.3576C27.0612 38.3388 27.283 38.1881 27.5047 38.1033C28.4014 37.7642 29.1631 38.2258 29.0666 39.0923C29.0184 39.5161 28.816 39.9305 28.6424 40.3355C28.2182 41.3245 28.1411 41.6542 28.2953 42.2758C28.3146 41.1644 29.6741 40.8724 30.0019 39.94C30.0501 39.9588 30.0983 39.9682 30.1465 39.9871C30.0308 40.3167 30.0115 40.7029 29.7898 40.9666C28.411 42.6054 28.4882 44.4703 28.6521 46.3541C28.6906 46.7402 28.7774 47.1264 28.8353 47.5314C28.9027 46.9098 28.922 46.2976 29.0474 45.6948C29.2788 44.574 29.9344 43.6415 30.7346 42.7656C31.7373 41.6542 32.0555 40.3355 31.8916 38.9133C31.7952 38.1316 31.747 37.3498 31.7373 36.5681C31.7373 36.3044 31.9109 36.0406 32.094 35.7769C32.1037 36.7847 32.1326 37.7642 32.9232 38.6873C32.9521 37.7454 33.1642 36.9354 33.627 36.0783C33.6656 36.3891 33.6367 36.6057 33.7234 36.7847C33.7909 36.926 34.003 37.0861 34.1573 37.0861C34.2923 37.0861 34.4948 36.8977 34.5526 36.7564C34.6876 36.4268 34.7358 36.0689 34.8418 35.7392C35.054 35.0893 35.4396 34.5336 36.0374 34.1098C36.1049 34.0627 36.1916 34.0344 36.4134 33.9308C36.2495 34.2888 36.1241 34.5336 35.9795 34.8633C36.4134 34.6843 36.7894 34.5431 37.2329 34.3641C36.9629 35.0422 36.6544 35.5979 35.8638 35.8146C35.9024 35.8617 35.9313 35.8993 35.9699 35.9464C36.2591 35.7957 36.5773 35.6733 36.8473 35.5038C37.2618 35.24 37.6571 34.9292 38.0621 34.6467C38.6213 34.2511 39.1515 34.317 39.6529 34.7409C39.7686 34.835 39.8843 34.901 40.0096 34.9386C40.135 34.901 40.2603 34.835 40.3664 34.7409C40.8677 34.3076 41.398 34.2511 41.9572 34.6467C42.3621 34.9292 42.7574 35.24 43.172 35.5038C43.442 35.6827 43.7601 35.8052 44.0494 35.9464C44.0879 35.8993 44.1169 35.8617 44.1554 35.8146C43.3648 35.5979 43.0563 35.0422 42.7864 34.3641C43.2299 34.5431 43.6059 34.6938 44.0397 34.8633C43.8855 34.5336 43.7698 34.2888 43.6059 33.9308C43.8276 34.0344 43.9144 34.0533 43.9819 34.1098C44.5797 34.5336 44.9653 35.0893 45.1774 35.7392C45.2835 36.0783 45.3317 36.4362 45.4667 36.7564C45.5245 36.8977 45.727 37.0861 45.862 37.0861C46.0066 37.0861 46.2187 36.926 46.2958 36.7847C46.3826 36.6057 46.3537 36.3891 46.3922 36.0783C46.855 36.926 47.0671 37.736 47.0961 38.6873C47.8866 37.7642 47.9156 36.7753 47.9252 35.7769C48.1084 36.0406 48.2819 36.3044 48.2819 36.5681C48.2723 37.3498 48.2145 38.141 48.1277 38.9133C47.9638 40.3355 48.2723 41.6542 49.2847 42.7656C50.0849 43.6509 50.7309 44.574 50.9719 45.6948C51.0972 46.2882 51.1165 46.9098 51.184 47.5314C51.2515 47.1358 51.3383 46.7497 51.3672 46.3541C51.5311 44.4703 51.6179 42.596 50.2295 40.9666C50.0078 40.7123 49.9885 40.3167 49.8728 39.9871C49.921 39.9682 49.9692 39.9588 50.0174 39.94C50.3356 40.8724 51.7046 41.155 51.7239 42.2758C51.8782 41.6636 51.8011 41.3245 51.3768 40.3355C51.2033 39.9305 51.0008 39.5161 50.9526 39.0923C50.8466 38.2163 51.6179 37.7548 52.5145 38.1033C52.7459 38.1881 52.9677 38.3388 53.1991 38.3576C53.4208 38.3765 53.7775 38.3294 53.8547 38.2069C53.9897 37.9903 54.0089 37.6701 53.9511 37.4252C53.9125 37.2745 53.6233 37.1709 53.4787 37.0767C53.363 37.3216 53.3437 37.5665 53.2183 37.6041C53.0448 37.6701 52.7652 37.6512 52.6206 37.557C52.4181 37.4252 52.2156 37.1991 52.1771 36.9919C52.0614 36.3985 52.071 35.7957 52.5916 35.3248C53.3822 34.5996 53.7486 33.7519 53.4883 32.6593C54.1246 33.2339 53.9222 33.8837 53.9029 34.5619C54.0379 34.4583 54.1246 34.4112 54.1921 34.3358C55.3009 33.215 55.648 31.8964 55.3491 30.4365C55.2527 30.0786 55.0502 29.683 54.7706 29.4381ZM45.2835 33.7519C44.8689 33.4034 44.5122 33.0078 44.0976 32.6687C43.6444 32.292 43.0949 32.1036 42.4489 32.1413C42.4007 32.6028 42.0632 32.8383 41.6776 33.0455C41.128 33.3375 40.5978 33.6765 40.0482 33.9685C40.0289 33.9779 40.0193 33.9874 40 33.9968C39.9807 33.9874 39.9711 33.9779 39.9518 33.9685C39.4022 33.6765 38.8719 33.3375 38.3224 33.0455C37.9271 32.8383 37.5896 32.6028 37.5511 32.1413C36.8955 32.1036 36.3555 32.292 35.9024 32.6687C35.4878 33.0078 35.1311 33.4128 34.7165 33.7519C34.4562 33.9685 34.1477 34.1192 33.7717 34.3641C34.273 33.3375 34.6876 32.405 35.1889 31.5102C35.3432 31.2465 35.6999 30.9922 36.0277 30.898C36.5773 30.7473 37.0015 30.4648 37.3968 30.1163C37.6378 29.8996 37.9078 29.6924 38.2067 29.5606C38.7563 29.3157 39.2383 29.57 39.3733 30.1822C38.8719 29.9467 38.3899 29.9091 37.9946 30.2952C37.5318 30.7379 37.6282 31.2936 37.715 31.8211C37.7343 31.9058 37.9849 32.0189 38.1199 32.0094C38.5634 31.9718 38.9202 32.0942 39.248 32.3297C39.4794 32.4992 39.7397 32.5463 40 32.5086C40.2603 32.5463 40.5206 32.4992 40.752 32.3297C41.0895 32.0942 41.4462 31.9718 41.8801 32.0094C42.015 32.0189 42.2657 31.9058 42.285 31.8211C42.3718 31.2936 42.4682 30.7379 42.0054 30.2952C41.6101 29.9185 41.128 29.9562 40.6267 30.1822C40.7617 29.5794 41.2437 29.3157 41.7933 29.5606C42.0922 29.6924 42.3621 29.9091 42.6032 30.1163C42.9985 30.4648 43.413 30.7473 43.9722 30.898C44.3001 30.9922 44.6568 31.2371 44.811 31.5102C45.3124 32.405 45.727 33.3375 46.2283 34.3641C45.862 34.1286 45.5438 33.9685 45.2835 33.7519Z" fill="white"/>
<path d="M44.6086 40.5616C44.599 40.5522 44.5604 40.5522 44.5508 40.5522C44.5122 41.2115 44.5122 41.8708 44.4062 42.5207C44.3098 43.1612 44.0976 43.7828 43.9337 44.4045C43.8566 43.3684 43.8759 42.3324 43.6831 41.3246C43.442 40.1284 43.0371 38.9605 41.9862 38.0939C41.8512 37.9809 41.7548 37.915 41.668 37.8867C41.1281 37.5853 40.5303 37.51 39.9904 37.5288C39.4505 37.51 38.8527 37.5853 38.3128 37.8867C38.226 37.915 38.12 37.9809 37.9946 38.0939C36.9534 38.9699 36.5388 40.1378 36.2978 41.3246C36.0953 42.3229 36.1242 43.359 36.0471 44.4045C35.8928 43.7828 35.6807 43.1612 35.5747 42.5207C35.4686 41.8708 35.4782 41.2115 35.43 40.5522C35.4204 40.5522 35.3818 40.5428 35.3722 40.5616C34.8998 41.4564 34.0706 42.0969 33.3475 42.8221C31.506 44.6682 30.3394 46.778 30.5901 49.3493C30.6479 49.905 30.8504 50.4607 31.0625 51.007C31.0046 49.8202 31.2457 48.7276 32.0363 47.7575C31.8434 48.7465 31.9495 49.6789 32.6244 50.4984C32.8076 50.7244 33.01 50.9504 33.2511 51.12C34.4177 51.93 35.2854 52.8719 35.1601 54.3412C35.6711 53.7666 35.7096 52.966 35.2469 52.2973C34.9865 51.9206 34.6298 51.5815 34.3406 51.2236C34.032 50.8374 33.6946 50.4607 33.4535 50.0368C33.1547 49.5094 33.2222 48.9914 33.5692 48.4074C33.7042 48.69 33.8296 48.9537 33.9549 49.2174C33.9935 49.208 34.032 49.1986 34.0706 49.1892C33.8585 48.4168 34.1381 47.7481 34.5045 47.0794C34.6684 46.7874 34.6876 46.4295 34.7744 46.0904C35.0926 46.3165 35.0637 46.6744 34.9769 47.0417C34.8901 47.409 34.7551 47.7858 34.7262 48.1531C34.6394 49.2551 35.0637 50.1875 35.8735 51.0164C36.8955 52.0524 36.7895 53.955 35.6904 54.8686C35.3625 55.1418 35.0058 55.4055 34.5141 55.2454C34.032 55.0947 34.0417 54.7085 34.0802 54.2941C33.6367 54.6049 33.5982 54.9722 33.7139 55.349C33.8296 55.7351 34.1477 55.9989 34.6009 55.9989C34.9383 56.0083 35.3047 55.9612 35.5939 55.8293C36.9245 55.2642 37.5897 54.2847 37.6379 52.9755C37.6379 52.9095 37.6476 52.8342 37.6572 52.7683C37.6572 52.7588 37.6765 52.7494 37.6861 52.74C38.3514 53.1356 38.6406 53.9456 38.6985 55.5939C39.4987 54.2093 39.5662 52.0148 37.3872 50.8657C35.7289 49.9897 35.1215 48.7465 35.4397 47.0605C35.5747 46.3541 35.565 45.6289 35.189 44.9507C35.2372 44.9319 35.2854 44.9037 35.3336 44.8848C35.5072 45.1485 35.7675 45.3934 35.8446 45.676C35.941 46.0339 35.8543 46.4295 35.8928 46.8062C35.9507 47.4184 35.9892 48.0401 36.1435 48.6335C36.2592 49.0856 36.6738 49.387 37.1944 49.4529C38.4671 49.6224 39.0938 50.3382 39.3734 51.3931C39.3926 51.4591 39.4216 51.525 39.4601 51.6003C39.8458 51.0541 39.6433 49.7072 39.1323 49.0667C38.8913 48.7653 38.6406 48.4828 38.4092 48.1814C37.7825 47.3525 37.8693 46.6461 38.7081 45.9774C38.9299 45.7984 39.1709 45.6477 39.4312 45.5065C39.6337 45.3934 39.8169 45.2804 39.9904 45.158C40.164 45.2804 40.3568 45.3934 40.5496 45.5065C40.8003 45.6477 41.051 45.8078 41.2727 45.9774C42.1115 46.6461 42.1983 47.3525 41.5716 48.1814C41.3402 48.4828 41.0895 48.7747 40.8485 49.0667C40.3375 49.7072 40.135 51.0541 40.5207 51.6003C40.5496 51.525 40.5882 51.4591 40.6075 51.3931C40.8774 50.3382 41.5041 49.6224 42.7864 49.4529C43.2974 49.387 43.7216 49.0856 43.8373 48.6335C43.9916 48.0401 44.0302 47.4184 44.088 46.8062C44.1266 46.4295 44.0398 46.0339 44.1362 45.676C44.2133 45.3934 44.464 45.1485 44.6472 44.8848C44.6954 44.9037 44.7436 44.9319 44.7918 44.9507C44.4255 45.6289 44.4158 46.3636 44.5412 47.0605C44.8593 48.7465 44.2519 49.9897 42.5936 50.8657C40.4146 52.0148 40.4725 54.2093 41.2824 55.5939C41.3306 53.955 41.6198 53.1356 42.2947 52.74C42.3043 52.7494 42.3236 52.7588 42.3236 52.7683C42.3333 52.8342 42.3429 52.9095 42.3429 52.9755C42.4008 54.2941 43.0564 55.2642 44.3869 55.8293C44.6858 55.9612 45.0521 56.0083 45.38 55.9989C45.8235 55.9894 46.1513 55.7351 46.267 55.349C46.3827 54.9722 46.3441 54.6049 45.9006 54.2941C45.9392 54.7179 45.9488 55.0947 45.4667 55.2454C44.975 55.4055 44.6183 55.1418 44.2905 54.8686C43.1817 53.955 43.0853 52.0524 44.1073 51.0164C44.9172 50.197 45.3414 49.2551 45.2546 48.1531C45.2257 47.7764 45.0907 47.409 45.0039 47.0417C44.9172 46.6649 44.8979 46.3165 45.2064 46.0904C45.2932 46.4295 45.3221 46.7874 45.4764 47.0794C45.8427 47.7481 46.132 48.4262 45.9102 49.1892C45.9488 49.1986 45.9874 49.208 46.0259 49.2174C46.1513 48.9537 46.2766 48.69 46.4116 48.4074C46.749 48.9914 46.8262 49.5094 46.5273 50.0368C46.2862 50.4607 45.9488 50.8374 45.6403 51.2236C45.351 51.5909 44.9943 51.9206 44.734 52.2973C44.2712 52.966 44.3098 53.7666 44.8208 54.3412C44.6954 52.8719 45.5631 51.93 46.7297 51.12C46.9708 50.9504 47.1733 50.7244 47.3564 50.4984C48.0313 49.6695 48.1374 48.7371 47.9446 47.7575C48.7255 48.7276 48.9666 49.8202 48.9183 51.007C49.1305 50.4607 49.3329 49.9144 49.3908 49.3493C49.6415 46.7874 48.4652 44.6776 46.6333 42.8221C45.9102 42.0969 45.0811 41.4658 44.6086 40.5616Z" fill="white"/>
<path d="M52.3507 16.0448C51.9747 15.8188 51.5986 15.5833 51.1841 15.4326C50.7695 15.2819 50.3163 15.2066 49.8632 15.1124C49.0148 14.9428 48.3977 14.5001 47.9446 13.8597C47.7421 13.5771 47.5396 13.2851 47.3179 13.012C46.7201 12.2773 45.8909 12.0325 44.9172 12.1361C44.5894 12.1737 44.2519 12.2585 44.1073 12.6164C44.4544 12.6353 44.7629 12.6541 45.0811 12.6729C45.0907 12.72 45.1003 12.7671 45.11 12.8236C44.9268 12.899 44.7436 12.9932 44.5508 13.0403C44.2326 13.1156 43.8855 13.1156 43.5866 13.2192C43.2106 13.3511 42.8539 13.5206 42.5357 13.7372C42.4104 13.822 42.4393 14.0763 42.3911 14.2553C42.6321 14.2929 42.8828 14.3871 43.1142 14.3589C43.2492 14.34 43.336 14.1046 43.471 14.001C43.6541 13.8691 43.8566 13.6901 44.0591 13.6807C44.6761 13.643 45.2932 13.6619 45.9102 13.6619L45.9584 13.709C45.6113 13.8314 45.2643 13.9633 44.9075 14.0669C44.358 14.2364 44.0976 14.5567 44.1362 15.0747C44.7629 14.4625 45.4956 14.3683 46.3344 14.6226C46.5851 14.6979 46.9419 14.7545 47.1443 14.6508C47.4721 14.4813 47.6842 14.5755 47.906 14.7356C48.1277 14.8957 48.3495 15.0653 48.5038 15.2725C48.8123 15.7057 49.2461 15.8847 49.7957 15.913C50.432 15.9506 50.9623 16.2143 51.4058 16.6194C51.5504 16.7512 51.6758 16.8925 51.83 17.0149C52.1386 17.241 52.4374 17.1562 52.5435 16.8077C52.6688 16.5157 52.6592 16.2332 52.3507 16.0448Z" fill="white"/>
<path d="M47.5204 12.4563C48.7159 13.2098 49.7668 13.0873 50.8563 12.2114C51.0202 12.0795 51.3191 12.089 51.5601 12.0419C51.5505 12.2585 51.6276 12.5128 51.5216 12.6918C51.2709 13.125 50.9431 13.5206 50.6538 13.9444C50.596 14.0386 50.6056 14.1705 50.5767 14.2835C50.702 14.2553 50.8659 14.2553 50.9334 14.1893C51.4348 13.6148 51.9458 13.0497 52.3796 12.4375C52.6207 12.0984 52.611 11.6745 52.3025 11.326C51.994 10.9776 51.5698 10.8645 51.0877 10.9305C50.5092 11.0058 50.085 11.2978 49.709 11.6745C49.1401 12.2397 47.7614 12.1926 47.2311 11.5992C46.9612 11.2978 46.8937 10.9776 47.1154 10.6196C47.2408 10.4219 47.3468 10.2146 47.424 10.0074C47.6457 9.34813 47.3372 8.9337 46.5755 8.84894C46.402 8.8301 46.2284 8.8301 46.0645 8.82068V8.8301H45.8717C44.8111 8.86777 44.628 9.1315 45.0907 9.97918C45.6596 10.987 46.4887 11.8064 47.5204 12.4563Z" fill="white"/>
<path d="M50.4416 18.3524C50.6344 18.0133 50.4994 17.6366 50.0849 17.4293C49.8535 17.3163 49.5739 17.2692 49.3521 17.1468C48.9375 16.9113 48.4748 16.6853 48.1662 16.365C47.7324 15.9129 47.2503 15.6586 46.5947 15.6586H45.3317C45.322 15.6963 45.3124 15.734 45.3027 15.7717C46.1319 15.9412 46.6525 16.4404 47.1153 17.0338C47.6842 17.7684 48.5037 18.2488 49.3618 18.6632C49.7763 18.861 50.2391 18.7009 50.4416 18.3524Z" fill="white"/>
<path d="M49.3521 19.332C49.3232 19.332 49.2846 19.3602 49.1689 19.4261C49.3714 19.5015 49.4968 19.5768 49.6317 19.5957C50.4995 19.7275 51.3383 19.671 52.1578 19.3225C52.4663 19.1907 52.852 19.1153 53.1894 19.1342C54.0764 19.1907 54.5681 19.7087 54.7706 20.6694C54.8574 21.065 54.9731 21.4512 55.0695 21.8467C55.1177 21.8373 55.1755 21.8279 55.2237 21.8185C55.2912 20.66 55.0309 19.5674 54.3078 18.5879C53.9511 18.0981 53.4304 17.8909 52.7748 17.9662C52.1674 18.0322 51.6757 18.2959 51.2804 18.6915C50.7598 19.2001 50.1427 19.4544 49.3521 19.332Z" fill="white"/>
<path d="M54.3463 22.2517C54.0377 21.9126 53.7678 21.5547 53.4785 21.1968C53.1989 20.8483 52.8519 20.6694 52.3505 20.7259C52.0902 20.7541 51.8202 20.707 51.5599 20.6788C50.9911 20.6034 50.4222 20.5187 49.8534 20.4339C49.8341 20.4716 49.8245 20.5092 49.8052 20.5469C50.5379 21.3193 51.261 22.0916 52.5819 21.9503C52.9868 21.9126 53.305 22.0822 53.5364 22.393C53.7389 22.6567 53.9317 22.9393 54.1727 23.1747C54.5295 23.5138 54.9826 23.429 55.1947 23.09C54.9055 22.798 54.5969 22.5437 54.3463 22.2517Z" fill="white"/>
<path d="M41.6197 9.89437C42.256 10.403 42.5356 10.3276 42.9213 9.64007C43.0563 9.38577 43.3262 9.18797 43.4901 8.94309C43.6155 8.75472 43.789 8.51925 43.7505 8.33087C43.683 8.02948 43.3552 8.00122 43.0274 8.00122C42.2946 8.02006 41.7451 8.34971 41.2726 8.79239C40.5592 9.47053 40.4627 10.4783 41.0798 11.2789C41.1087 10.7138 40.9545 10.1581 41.6197 9.89437Z" fill="white"/>
<path d="M54.6646 24.5217C53.7969 24.2014 52.9099 23.9094 52.3507 23.1277C52.2832 23.3255 52.235 23.5139 52.2639 23.6928C52.4375 24.6818 53.2281 25.1621 54.1633 25.5012C55.2142 25.8874 55.3395 26.0381 55.3492 27.0835C55.7734 26.8575 55.9469 26.5561 55.9855 26.1888C56.0819 25.3976 55.7059 24.9078 54.6646 24.5217Z" fill="white"/>
<path d="M40.3277 12.0324C40.2506 12.0042 40.1734 11.9665 40.106 11.9382V12.1454C40.2217 12.1549 40.3374 12.1643 40.4531 12.1643C40.3856 12.0889 40.3663 12.0513 40.3277 12.0324Z" fill="white"/>
<path d="M49.4968 25.2562C49.4871 25.4163 49.4968 25.5576 49.545 25.6801C49.8053 26.4995 50.3259 27.1776 51.078 27.7051C51.7529 28.176 52.5049 28.5622 52.7845 29.4475C53.1605 28.3832 52.7074 27.2907 51.7529 26.7538C50.9526 26.3111 50.0367 26.0286 49.4968 25.2562Z" fill="white"/>
<path d="M41.3594 12.9178C41.4172 12.8612 41.4654 12.8236 41.4944 12.7765C41.9475 12.0889 42.4778 11.618 43.4998 11.6368C44.3289 11.6462 44.8496 10.8739 44.676 10.1769C43.0466 10.1581 41.3979 10.7985 41.3594 12.9178Z" fill="white"/>
<path d="M46.1607 24.6911C46.4307 24.6817 46.7199 24.597 46.9706 24.5028C47.2791 24.3803 47.4623 24.1637 47.3659 23.8058C46.5946 24.0978 45.8619 24.5122 44.8688 24.1825C45.1387 24.0601 45.3123 23.9847 45.5823 23.8623C44.4639 23.7399 43.5576 24.0789 43.2876 24.7006C44.2614 24.7006 45.2159 24.7194 46.1607 24.6911Z" fill="white"/>
<path d="M43.5095 25.4823C43.7216 25.8402 43.9723 25.9627 44.3098 25.8685C44.6472 25.7743 44.7918 25.5483 44.6665 25.1998C44.4255 25.6801 44.0205 25.6613 43.5095 25.4823Z" fill="white"/>
<path d="M41.4365 15.6963C41.7546 14.3966 41.4075 13.6336 40.2313 12.9932C40.1831 12.9649 40.1445 12.9461 40.106 12.9272V14.2835C40.6555 14.6038 41.0894 15.0841 41.4365 15.6963Z" fill="white"/>
<path d="M34.6875 18.569C34.4369 18.7197 34.2151 18.8892 33.9933 19.0682C33.3474 19.6051 32.6821 20.1137 32.094 20.6976C31.7565 21.0179 31.5155 21.4323 31.2938 21.8279C31.0238 22.2988 30.8503 22.8168 30.5899 23.2972C30.2718 23.8811 29.7897 24.2391 29.0087 24.2579C28.2856 24.2767 27.8229 24.6535 27.7168 25.1998C28.6713 25.4164 30.05 24.9455 30.6574 24.0884C31.0045 23.5986 31.207 23.024 31.4577 22.4778C31.6987 21.9597 31.8722 21.4134 32.335 21.0932C32.4604 21.4417 32.4796 21.8655 32.7303 22.1198C33.0003 22.393 33.4631 22.5249 33.8584 22.6756C34.1476 22.7792 34.4658 22.8168 34.7743 22.8639C35.4203 22.9675 36.0084 23.1747 36.4905 23.5892C36.529 23.6174 36.5676 23.6457 36.5965 23.6645C37.0497 23.9942 37.5317 24.2767 38.1391 23.9942C38.7851 23.6928 38.9779 23.1371 38.8623 22.5531C38.7658 22.0445 38.5152 21.5547 38.332 21.0838C38.8719 21.4888 39.1322 22.0916 39.325 22.7226C39.4407 23.09 39.5275 23.4667 39.6432 23.8246C39.6818 23.9471 39.8071 24.0413 39.8939 24.1449C39.8939 24.1449 39.9035 24.1449 39.9035 24.1354V24.1449C39.9324 24.1166 39.971 24.0884 39.9999 24.0601C40.0289 24.0884 40.0674 24.1166 40.0963 24.1449V24.1354C40.0963 24.1354 40.106 24.1354 40.106 24.1449C40.1928 24.0413 40.3085 23.9377 40.3567 23.8246C40.482 23.4573 40.5591 23.09 40.6748 22.7226C40.8677 22.0916 41.128 21.4982 41.6679 21.0838C41.4944 21.5641 41.2437 22.0445 41.1376 22.5531C41.0219 23.1371 41.2051 23.6834 41.8607 23.9942C42.4681 24.2767 42.9406 23.9942 43.4033 23.6645C43.4419 23.6363 43.4805 23.6174 43.5094 23.5892C43.9915 23.1747 44.5796 22.9675 45.2256 22.8639C45.5341 22.8168 45.8523 22.7792 46.1415 22.6756C46.5464 22.5249 47.0092 22.393 47.2695 22.1198C47.5202 21.8655 47.5395 21.4323 47.6648 21.0932C48.1276 21.4134 48.3012 21.9597 48.5422 22.4778C48.7929 23.024 48.9954 23.5986 49.3424 24.0884C49.9499 24.9455 51.3286 25.4164 52.2831 25.1998C52.177 24.6535 51.7142 24.2673 50.9911 24.2579C50.2102 24.2391 49.7281 23.8811 49.4099 23.2972C49.1496 22.8168 48.9761 22.2988 48.7061 21.8279C48.4844 21.4323 48.2337 21.0179 47.9059 20.6976C47.3081 20.1231 46.6429 19.6051 46.0065 19.0682C45.7848 18.8892 45.563 18.7103 45.3123 18.569C43.7215 17.6177 41.9571 17.1845 40.106 17.1185H39.8939C38.0427 17.1845 36.2784 17.6177 34.6875 18.569Z" fill="white"/>
<path d="M28.1218 17.0149C28.276 16.9019 28.4014 16.7512 28.546 16.6193C28.9895 16.2143 29.5198 15.9506 30.1561 15.9129C30.7153 15.8847 31.1395 15.7057 31.4481 15.2725C31.5927 15.0653 31.8241 14.8957 32.0458 14.7356C32.2676 14.5755 32.4797 14.4813 32.8075 14.6508C33.01 14.7544 33.3667 14.7074 33.6174 14.6226C34.4562 14.3683 35.1889 14.4625 35.8156 15.0747C35.8638 14.5567 35.5939 14.2364 35.0443 14.0669C34.6876 13.9633 34.3501 13.8314 33.9934 13.709L34.0416 13.6619C34.6586 13.6619 35.2757 13.6336 35.8927 13.6807C36.0952 13.6996 36.3073 13.8691 36.4809 14.001C36.6158 14.1046 36.7026 14.34 36.8376 14.3589C37.069 14.3871 37.3197 14.2929 37.5607 14.2553C37.5221 14.0763 37.5414 13.822 37.4161 13.7372C37.0979 13.5206 36.7412 13.3511 36.3652 13.2192C36.0663 13.1156 35.7192 13.1156 35.401 13.0402C35.2082 12.9932 35.0347 12.899 34.8418 12.8236C34.8515 12.7765 34.8611 12.7294 34.8708 12.6729C35.1793 12.6541 35.4974 12.6352 35.8445 12.6164C35.6903 12.2585 35.3625 12.1737 35.0347 12.1361C34.0609 12.0324 33.2317 12.2868 32.6339 13.012C32.4122 13.2851 32.2097 13.5677 32.0073 13.8597C31.5445 14.5096 30.9371 14.9522 30.0886 15.1124C29.6451 15.1971 29.192 15.2725 28.7677 15.4326C28.3532 15.5833 27.9772 15.8188 27.6011 16.0448C27.3023 16.2238 27.283 16.5157 27.3697 16.8077C27.5144 17.1562 27.8133 17.241 28.1218 17.0149Z" fill="white"/>
<path d="M29.057 14.1799C29.1149 14.2552 29.2884 14.2458 29.4138 14.2741C29.3945 14.161 29.4041 14.0292 29.3366 13.935C29.057 13.5112 28.7196 13.1156 28.4689 12.6823C28.3725 12.5034 28.44 12.2491 28.4303 12.0324C28.6714 12.0889 28.9703 12.0701 29.1342 12.202C30.2236 13.0779 31.2842 13.2003 32.4701 12.4468C33.4921 11.797 34.3309 10.9775 34.8804 9.96032C35.3432 9.11264 35.1504 8.84891 34.0995 8.81124H33.9067V8.80182C33.7331 8.81124 33.5596 8.81124 33.3957 8.83008C32.634 8.90542 32.3255 9.32926 32.5472 9.98857C32.6243 10.2052 32.7304 10.403 32.8557 10.6008C33.0775 10.9587 33.01 11.2789 32.74 11.5803C32.2098 12.1831 30.8407 12.2208 30.2622 11.6557C29.8862 11.2789 29.4523 10.987 28.8835 10.9116C28.4014 10.8457 27.9772 10.9587 27.6687 11.3072C27.3601 11.6557 27.3505 12.0795 27.5915 12.4186C28.0447 13.0402 28.5557 13.6053 29.057 14.1799Z" fill="white"/>
<path d="M32.8943 17.0149C33.3571 16.4215 33.8777 15.9223 34.7069 15.7528C34.6972 15.7151 34.6876 15.6774 34.678 15.6398H33.4149C32.7593 15.6398 32.2773 15.9035 31.8434 16.3462C31.5252 16.6758 31.0721 16.8925 30.6575 17.1279C30.4358 17.2504 30.1562 17.2975 29.9248 17.4105C29.5102 17.6177 29.3752 18.0039 29.568 18.3335C29.7705 18.6914 30.2333 18.8421 30.6575 18.6255C31.5059 18.2205 32.3158 17.7401 32.8943 17.0149Z" fill="white"/>
<path d="M24.9209 21.8467C25.0269 21.4511 25.1426 21.0649 25.2198 20.6694C25.4222 19.7087 25.9139 19.1906 26.801 19.1341C27.1384 19.1153 27.5241 19.1812 27.8326 19.3225C28.6521 19.671 29.4909 19.7275 30.3586 19.5956C30.4936 19.5768 30.6286 19.5014 30.8214 19.4261C30.7057 19.3696 30.6672 19.3319 30.6382 19.3319C29.8573 19.4449 29.2306 19.2 28.71 18.682C28.3147 18.2864 27.8133 18.0227 27.2155 17.9568C26.5599 17.8814 26.0393 18.0886 25.6826 18.5784C24.9595 19.558 24.6991 20.6505 24.7666 21.809C24.8148 21.8279 24.8727 21.8373 24.9209 21.8467Z" fill="white"/>
<path d="M30.1947 20.5469C30.1754 20.5092 30.1658 20.4716 30.1465 20.4339C29.5777 20.5187 29.0088 20.6034 28.44 20.6788C28.1797 20.7165 27.9097 20.7541 27.6494 20.7259C27.148 20.6694 26.8009 20.8483 26.5213 21.1968C26.2321 21.5547 25.9621 21.9126 25.6536 22.2517C25.3933 22.5343 25.0944 22.798 24.7955 23.0805C25.0076 23.429 25.4608 23.5044 25.8175 23.1653C26.0682 22.9298 26.2514 22.6473 26.4539 22.3836C26.6852 22.0728 27.0131 21.9032 27.4084 21.9409C28.7389 22.0916 29.462 21.3193 30.1947 20.5469Z" fill="white"/>
<path d="M37.0787 9.6401C37.4547 10.3371 37.7343 10.4124 38.3802 9.8944C39.0455 10.1581 38.8912 10.7044 38.9105 11.2789C39.5276 10.4784 39.4312 9.47998 38.7177 8.79242C38.2453 8.34974 37.6957 8.01067 36.963 8.00125C36.6351 7.99183 36.3073 8.0295 36.2398 8.3309C36.2013 8.50986 36.3748 8.75474 36.5002 8.94312C36.6737 9.188 36.9437 9.38579 37.0787 9.6401Z" fill="white"/>
<path d="M25.8368 25.5012C26.772 25.1621 27.5626 24.6818 27.7361 23.6928C27.7651 23.5139 27.7169 23.3255 27.6494 23.1277C27.0902 23.9094 26.2032 24.2014 25.3354 24.5217C24.2942 24.9078 23.9181 25.3882 24.0146 26.1888C24.0531 26.5561 24.2363 26.8481 24.6509 27.0835C24.6509 26.0381 24.7762 25.8874 25.8368 25.5012Z" fill="white"/>
<path d="M39.894 11.9382C39.8168 11.9759 39.7493 12.0042 39.6722 12.0324C39.6336 12.0513 39.6144 12.0889 39.5469 12.1643C39.6626 12.1643 39.7783 12.1549 39.894 12.1454V11.9382Z" fill="white"/>
<path d="M28.2568 26.7538C27.3023 27.3001 26.8491 28.3926 27.2251 29.4475C27.5047 28.5622 28.2568 28.176 28.9317 27.7051C29.674 27.1871 30.1947 26.5089 30.4646 25.6801C30.5032 25.5482 30.5225 25.4163 30.5128 25.2562C29.9633 26.0286 29.0474 26.3111 28.2568 26.7538Z" fill="white"/>
<path d="M36.4906 11.6368C37.5126 11.618 38.0429 12.0889 38.496 12.7765C38.5249 12.8236 38.5731 12.8518 38.631 12.9178C38.5924 10.7985 36.9437 10.1581 35.3143 10.1769C35.1408 10.8739 35.6614 11.6462 36.4906 11.6368Z" fill="white"/>
<path d="M34.4175 23.8623C34.6875 23.9847 34.8514 24.0601 35.131 24.1825C34.1379 24.5122 33.4051 24.0978 32.6338 23.8058C32.5278 24.1637 32.7206 24.3803 33.0291 24.5028C33.2798 24.6064 33.569 24.6911 33.839 24.6911C34.7935 24.71 35.7384 24.7006 36.7218 24.7006C36.4518 24.0789 35.5359 23.7399 34.4175 23.8623Z" fill="white"/>
<path d="M35.3431 25.1903C35.2177 25.5388 35.3527 25.7648 35.6998 25.859C36.0373 25.9532 36.2879 25.8402 36.5 25.4729C35.9794 25.6612 35.5745 25.6801 35.3431 25.1903Z" fill="white"/>
<path d="M39.8939 14.2741V12.9178C39.8554 12.9367 39.8072 12.9649 39.7686 12.9838C38.602 13.6242 38.2453 14.3966 38.5634 15.6869C38.9105 15.0841 39.3444 14.6038 39.8939 14.2741Z" fill="white"/>
<path d="M38.5826 37.0296C38.949 37.1709 39.3636 37.1991 39.7781 37.2839C39.8553 37.2651 39.9324 37.2556 39.9999 37.2462C40.077 37.2556 40.1542 37.2745 40.2217 37.2839C40.6362 37.1991 41.0508 37.1709 41.4172 37.0296C41.5811 36.9637 41.7546 36.6717 41.7257 36.5022C41.6968 36.342 41.4172 36.1066 41.2436 36.0972C40.8291 36.0877 40.4145 36.0877 39.9999 36.0972C39.5853 36.0877 39.1707 36.0877 38.7562 36.0972C38.5826 36.0972 38.303 36.342 38.2741 36.5022C38.2452 36.6717 38.4091 36.9637 38.5826 37.0296Z" fill="white"/>
</svg>
