<svg width="18" height="18" viewBox="0 0 18 18" fill="none" xmlns="http://www.w3.org/2000/svg">
<path d="M1 10.0001H7C7.55 10.0001 8 9.55012 8 9.00012V1.00012C8 0.450122 7.55 0.00012207 7 0.00012207H1C0.45 0.00012207 0 0.450122 0 1.00012V9.00012C0 9.55012 0.45 10.0001 1 10.0001ZM1 18.0001H7C7.55 18.0001 8 17.5501 8 17.0001V13.0001C8 12.4501 7.55 12.0001 7 12.0001H1C0.45 12.0001 0 12.4501 0 13.0001V17.0001C0 17.5501 0.45 18.0001 1 18.0001ZM11 18.0001H17C17.55 18.0001 18 17.5501 18 17.0001V9.00012C18 8.45012 17.55 8.00012 17 8.00012H11C10.45 8.00012 10 8.45012 10 9.00012V17.0001C10 17.5501 10.45 18.0001 11 18.0001ZM10 1.00012V5.00012C10 5.55012 10.45 6.00012 11 6.00012H17C17.55 6.00012 18 5.55012 18 5.00012V1.00012C18 0.450122 17.55 0.00012207 17 0.00012207H11C10.45 0.00012207 10 0.450122 10 1.00012Z" fill="white"/>
</svg>
