<svg width="20" height="14" viewBox="0 0 20 14" fill="none" xmlns="http://www.w3.org/2000/svg">
<path d="M14.5 7.00012C15.88 7.00012 16.99 5.88012 16.99 4.50012C16.99 3.12012 15.88 2.00012 14.5 2.00012C13.12 2.00012 12 3.12012 12 4.50012C12 5.88012 13.12 7.00012 14.5 7.00012ZM7 6.00012C8.66 6.00012 9.99 4.66012 9.99 3.00012C9.99 1.34012 8.66 0.00012207 7 0.00012207C5.34 0.00012207 4 1.34012 4 3.00012C4 4.66012 5.34 6.00012 7 6.00012ZM14.5 9.00012C12.67 9.00012 9 9.92012 9 11.7501V13.0001C9 13.5501 9.45 14.0001 10 14.0001H19C19.55 14.0001 20 13.5501 20 13.0001V11.7501C20 9.92012 16.33 9.00012 14.5 9.00012ZM7 8.00012C4.67 8.00012 0 9.17012 0 11.5001V13.0001C0 13.5501 0.45 14.0001 1 14.0001H7V11.7501C7 10.9001 7.33 9.41012 9.37 8.28012C8.5 8.10012 7.66 8.00012 7 8.00012Z" fill="white"/>
</svg>
