<svg width="20" height="20" viewBox="0 0 20 20" fill="none" xmlns="http://www.w3.org/2000/svg">
<path d="M17.43 10.9801C17.47 10.6601 17.5 10.3401 17.5 10.0001C17.5 9.66012 17.47 9.34012 17.43 9.02012L19.54 7.37012C19.73 7.22012 19.78 6.95012 19.66 6.73012L17.66 3.27012C17.54 3.05012 17.27 2.97012 17.05 3.05012L14.56 4.05012C14.04 3.65012 13.48 3.32012 12.87 3.07012L12.49 0.420122C12.46 0.180122 12.25 0.00012207 12 0.00012207H7.99996C7.74996 0.00012207 7.53996 0.180122 7.50996 0.420122L7.12996 3.07012C6.51996 3.32012 5.95996 3.66012 5.43996 4.05012L2.94996 3.05012C2.71996 2.96012 2.45996 3.05012 2.33996 3.27012L0.339961 6.73012C0.209961 6.95012 0.269962 7.22012 0.459962 7.37012L2.56996 9.02012C2.52996 9.34012 2.49996 9.67012 2.49996 10.0001C2.49996 10.3301 2.52996 10.6601 2.56996 10.9801L0.459962 12.6301C0.269962 12.7801 0.219961 13.0501 0.339961 13.2701L2.33996 16.7301C2.45996 16.9501 2.72996 17.0301 2.94996 16.9501L5.43996 15.9501C5.95996 16.3501 6.51996 16.6801 7.12996 16.9301L7.50996 19.5801C7.53996 19.8201 7.74996 20.0001 7.99996 20.0001H12C12.25 20.0001 12.46 19.8201 12.49 19.5801L12.87 16.9301C13.48 16.6801 14.04 16.3401 14.56 15.9501L17.05 16.9501C17.28 17.0401 17.54 16.9501 17.66 16.7301L19.66 13.2701C19.78 13.0501 19.73 12.7801 19.54 12.6301L17.43 10.9801ZM9.99996 13.5001C8.06996 13.5001 6.49996 11.9301 6.49996 10.0001C6.49996 8.07012 8.06996 6.50012 9.99996 6.50012C11.93 6.50012 13.5 8.07012 13.5 10.0001C13.5 11.9301 11.93 13.5001 9.99996 13.5001Z" fill="white"/>
</svg>
