<svg width="16" height="20" viewBox="0 0 16 20" fill="none" xmlns="http://www.w3.org/2000/svg">
<path d="M8.00005 20.0001C9.10005 20.0001 10.0001 19.1001 10.0001 18.0001H6.00005C6.00005 19.1001 6.89005 20.0001 8.00005 20.0001ZM14.0001 14.0001V9.00012C14.0001 5.93012 12.3601 3.36012 9.50005 2.68012V2.00012C9.50005 1.17012 8.83005 0.500122 8.00005 0.500122C7.17005 0.500122 6.50005 1.17012 6.50005 2.00012V2.68012C3.63005 3.36012 2.00005 5.92012 2.00005 9.00012V14.0001L0.710051 15.2901C0.0800515 15.9201 0.520051 17.0001 1.41005 17.0001H14.5801C15.4701 17.0001 15.9201 15.9201 15.2901 15.2901L14.0001 14.0001Z" fill="white"/>
</svg>
