<svg width="22" height="22" viewBox="0 0 22 22" fill="none" xmlns="http://www.w3.org/2000/svg">
<g clip-path="url(#clip0_14008_35665)">
<path d="M0.972656 2.34668V8.08226C0.972569 8.81142 1.26206 9.51076 1.77749 10.0265L12.3751 20.625C12.6329 20.8828 12.9826 21.0276 13.3472 21.0276C13.7118 21.0276 14.0615 20.8828 14.3193 20.625L20.6251 14.3183C20.8828 14.0605 21.0277 13.7108 21.0277 13.3462C21.0277 12.9816 20.8828 12.6319 20.6251 12.3741L10.0275 1.77651C9.51173 1.26109 8.81239 0.971592 8.08324 0.97168H2.34766C1.98298 0.97168 1.63325 1.11655 1.37538 1.37441C1.11752 1.63227 0.972656 1.98201 0.972656 2.34668V2.34668Z" stroke="white" stroke-width="1.5" stroke-linecap="round" stroke-linejoin="round"/>
<path d="M5.78516 7.15918C6.54455 7.15918 7.16016 6.54357 7.16016 5.78418C7.16016 5.02479 6.54455 4.40918 5.78516 4.40918C5.02576 4.40918 4.41016 5.02479 4.41016 5.78418C4.41016 6.54357 5.02576 7.15918 5.78516 7.15918Z" stroke="white" stroke-width="1.5" stroke-linecap="round" stroke-linejoin="round"/>
</g>
<defs>
<clipPath id="clip0_14008_35665">
<rect width="22" height="22" fill="white"/>
</clipPath>
</defs>
</svg>
