<svg width="24" height="24" viewBox="0 0 24 24" fill="none" xmlns="http://www.w3.org/2000/svg">
<g clip-path="url(#clip0_1_2)">
<path d="M21.6562 0H2.34375C1.04933 0 0 1.04933 0 2.34375V21.6562C0 22.9507 1.04933 24 2.34375 24H21.6562C22.9507 24 24 22.9507 24 21.6562V2.34375C24 1.04933 22.9507 0 21.6562 0Z" fill="#0F172A"/>
<path d="M16.7068 11.1972C16.5382 11.0475 16.3666 10.9098 16.3605 10.6733C16.2318 10.9937 16.3084 11.2751 16.5781 11.4817C16.6884 11.5685 16.7497 11.6763 16.7313 11.802C16.7221 11.8679 16.6731 11.9547 16.6148 11.9846C16.5199 12.0296 16.4739 11.9427 16.4218 11.8799C16.2808 11.7122 16.1429 11.5416 15.9835 11.3919C15.9069 11.32 15.7843 11.2841 15.6801 11.2332C15.959 11.6074 16.0663 11.8889 16.0356 12.2811C16.0295 12.3799 16.0019 12.4936 15.9437 12.5715C15.7445 12.8319 15.5146 13.0744 15.4288 13.3918C15.3859 13.1792 15.4686 12.9906 15.5452 12.802C15.7904 12.2092 15.6985 11.6763 15.2081 11.2122C15.012 11.0266 14.7637 10.8799 14.7178 10.5955C14.6779 10.811 14.7668 10.9877 14.8833 11.1583C14.9844 11.302 15.0948 11.4428 15.1959 11.5865C15.3246 11.7691 15.4319 11.9607 15.4441 12.1853C15.4533 12.3589 15.4227 12.5206 15.2878 12.6673C15.2725 12.6403 15.2572 12.6254 15.251 12.6104C15.1714 12.3409 15.0151 12.1074 14.8067 11.9038C14.6565 11.7571 14.537 11.5954 14.5186 11.3859C14.5094 11.2721 14.4205 11.2422 14.301 11.2901C14.2397 11.314 14.1815 11.344 14.1232 11.3709C14.1079 11.3589 14.0956 11.347 14.0803 11.338C14.1447 11.2541 14.206 11.1673 14.2765 11.0895C14.3194 11.0446 14.3837 11.0116 14.4358 10.9757C14.3684 10.9518 14.301 10.9278 14.2274 10.9039C14.3653 10.7452 14.5125 10.5865 14.6473 10.4158C14.8465 10.1674 14.8342 10.0236 14.6074 9.77215C14.5278 9.83203 14.4573 9.88591 14.3715 9.9488C14.4052 9.86196 14.4297 9.7961 14.4542 9.73322C13.9547 9.90387 13.5471 10.2033 13.0046 10.2003V10.2482C13.2007 10.2901 13.3999 10.335 13.59 10.3739C13.4429 10.4967 13.2375 10.4607 13.0322 10.4308C13.2099 10.6194 13.452 10.5985 13.7217 10.6045C13.495 10.7542 13.2835 10.7811 13.0536 10.7272C12.7257 10.6494 12.4683 10.4637 12.2108 10.2781C12.1496 10.2332 12.0821 10.1913 12.0116 10.1584C11.9411 10.1913 11.8737 10.2362 11.8124 10.2781C11.555 10.4667 11.2976 10.6494 10.9696 10.7272C10.7398 10.7811 10.5283 10.7542 10.3015 10.6045C10.5712 10.5985 10.8133 10.6194 10.9911 10.4308C10.7857 10.4607 10.5804 10.4967 10.4333 10.3739C10.6233 10.332 10.8225 10.2901 11.0187 10.2482V10.2003C10.4762 10.2033 10.0655 9.90387 9.56906 9.73322C9.59358 9.79908 9.61809 9.86496 9.6518 9.9488C9.56906 9.88591 9.49549 9.83203 9.41583 9.77215C9.18902 10.0236 9.17676 10.1674 9.37598 10.4158C9.51082 10.5865 9.66101 10.7452 9.79584 10.9039C9.72537 10.9278 9.65794 10.9518 9.58744 10.9757C9.64261 11.0146 9.7039 11.0446 9.74681 11.0895C9.82036 11.1673 9.8786 11.2541 9.94296 11.338C9.92763 11.3499 9.91537 11.3619 9.90005 11.3709C9.8418 11.344 9.78359 11.314 9.7223 11.2901C9.59969 11.2422 9.51389 11.2721 9.5047 11.3859C9.4863 11.5954 9.36677 11.7571 9.21661 11.9038C9.0082 12.1104 8.85192 12.3409 8.77223 12.6104C8.76609 12.6254 8.75384 12.6403 8.73546 12.6673C8.6006 12.5206 8.56994 12.3559 8.57916 12.1853C8.58834 11.9607 8.69866 11.7721 8.82738 11.5865C8.92854 11.4428 9.03886 11.305 9.13999 11.1583C9.25645 10.9877 9.34533 10.811 9.30548 10.5955C9.26259 10.8799 9.01127 11.0266 8.81512 11.2122C8.32172 11.6763 8.23284 12.2122 8.47802 12.802C8.55464 12.9906 8.63737 13.1792 8.59448 13.3918C8.50559 13.0744 8.2788 12.8319 8.07961 12.5715C8.0183 12.4936 7.99378 12.3799 7.98766 12.2811C7.95701 11.8918 8.06428 11.6104 8.34316 11.2332C8.24203 11.2841 8.11638 11.317 8.03977 11.3919C7.88039 11.5445 7.74248 11.7122 7.60151 11.8799C7.54941 11.9427 7.50344 12.0326 7.40843 11.9846C7.34714 11.9547 7.30116 11.8679 7.29197 11.802C7.27357 11.6763 7.33488 11.5685 7.4452 11.4817C7.7149 11.2751 7.79152 10.9937 7.6628 10.6733C7.65361 10.9098 7.48505 11.0475 7.31648 11.1972C7.22761 11.2751 7.16325 11.4008 7.13873 11.5146C7.04067 11.9757 7.15099 12.3948 7.50649 12.7541C7.52796 12.7751 7.55552 12.793 7.59844 12.8259C7.59232 12.6104 7.52489 12.4038 7.73023 12.2212C7.65054 12.5685 7.76393 12.8379 8.01525 13.0684C8.17767 13.2182 8.18381 13.4098 8.14701 13.5984C8.13476 13.6643 8.0704 13.7361 8.00604 13.778C7.96008 13.8079 7.8712 13.8139 7.81603 13.793C7.77926 13.781 7.77007 13.7032 7.7333 13.6253C7.68731 13.6553 7.59537 13.6882 7.58311 13.7361C7.56166 13.8139 7.57085 13.9157 7.61377 13.9846C7.63828 14.0235 7.75167 14.0415 7.82217 14.0325C7.89879 14.0265 7.96927 13.9786 8.03977 13.9517C8.32479 13.8439 8.5669 13.9906 8.53624 14.266C8.52091 14.4008 8.45655 14.5325 8.40141 14.6612C8.26655 14.9756 8.24203 15.0804 8.29106 15.278C8.2972 14.9247 8.72932 14.8319 8.83352 14.5355C8.84885 14.5415 8.86418 14.5445 8.87948 14.5504C8.84271 14.6552 8.83659 14.778 8.76609 14.8618C8.32784 15.3828 8.35235 15.9756 8.40445 16.5743C8.41671 16.6971 8.4443 16.8199 8.4627 16.9486C8.48414 16.751 8.49028 16.5564 8.53012 16.3648C8.60367 16.0085 8.81208 15.7121 9.06644 15.4337C9.38517 15.0804 9.4863 14.6612 9.4342 14.2091C9.40357 13.9606 9.38824 13.7122 9.38517 13.4636C9.38517 13.3798 9.44034 13.296 9.49856 13.2122C9.50163 13.5325 9.51082 13.8439 9.76214 14.1373C9.77133 13.8379 9.83876 13.5804 9.98585 13.308C9.99811 13.4068 9.98892 13.4756 10.0165 13.5325C10.038 13.5774 10.1054 13.6283 10.1544 13.6283C10.1973 13.6283 10.2617 13.5684 10.2801 13.5235C10.323 13.4187 10.3383 13.305 10.372 13.2002C10.4394 12.9936 10.562 12.817 10.752 12.6822C10.7735 12.6673 10.8011 12.6583 10.8716 12.6254C10.8195 12.7391 10.7796 12.817 10.7336 12.9218C10.8716 12.8649 10.9911 12.82 11.1321 12.7631C11.0463 12.9786 10.9482 13.1553 10.6969 13.2241C10.7091 13.2391 10.7183 13.2511 10.7306 13.266C10.8225 13.2182 10.9237 13.1792 11.0095 13.1254C11.1412 13.0415 11.2669 12.9427 11.3956 12.8529C11.5734 12.7271 11.742 12.7481 11.9013 12.8828C11.9381 12.9128 11.9749 12.9337 12.0147 12.9457C12.0545 12.9337 12.0944 12.9128 12.1281 12.8828C12.2875 12.7451 12.456 12.7271 12.6338 12.8529C12.7625 12.9427 12.8881 13.0415 13.0199 13.1254C13.1057 13.1822 13.2069 13.2211 13.2988 13.266C13.3111 13.2511 13.3203 13.2391 13.3325 13.2241C13.0812 13.1553 12.9832 12.9786 12.8974 12.7631C13.0383 12.82 13.1578 12.8679 13.2958 12.9218C13.2467 12.817 13.2099 12.7391 13.1578 12.6254C13.2283 12.6583 13.2559 12.6643 13.2774 12.6822C13.4674 12.817 13.59 12.9936 13.6574 13.2002C13.6911 13.308 13.7064 13.4217 13.7493 13.5235C13.7677 13.5684 13.8321 13.6283 13.875 13.6283C13.921 13.6283 13.9884 13.5774 14.0129 13.5325C14.0405 13.4756 14.0313 13.4068 14.0435 13.308C14.1907 13.5774 14.2581 13.8349 14.2673 14.1373C14.5186 13.8439 14.5278 13.5295 14.5308 13.2122C14.5891 13.296 14.6442 13.3798 14.6442 13.4636C14.6412 13.7122 14.6228 13.9636 14.5952 14.2091C14.5431 14.6612 14.6412 15.0804 14.963 15.4337C15.2173 15.7151 15.4227 16.0085 15.4993 16.3648C15.5391 16.5534 15.5452 16.751 15.5667 16.9486C15.5882 16.8229 15.6157 16.7001 15.6249 16.5743C15.677 15.9756 15.7046 15.3798 15.2633 14.8618C15.1928 14.781 15.1867 14.6552 15.1499 14.5504C15.1652 14.5445 15.1806 14.5415 15.1959 14.5355C15.297 14.8319 15.7322 14.9217 15.7383 15.278C15.7874 15.0834 15.7629 14.9756 15.628 14.6612C15.5728 14.5325 15.5085 14.4008 15.4931 14.266C15.4594 13.9876 15.7046 13.8409 15.9896 13.9517C16.0632 13.9786 16.1337 14.0265 16.2072 14.0325C16.2777 14.0385 16.3911 14.0235 16.4156 13.9846C16.4585 13.9157 16.4647 13.8139 16.4463 13.7361C16.434 13.6882 16.3421 13.6553 16.2961 13.6253C16.2593 13.7032 16.2532 13.781 16.2134 13.793C16.1582 13.8139 16.0693 13.8079 16.0234 13.778C15.959 13.7361 15.8946 13.6643 15.8824 13.5984C15.8456 13.4098 15.8487 13.2182 16.0142 13.0684C16.2655 12.8379 16.3819 12.5685 16.2992 12.2212C16.5015 12.4038 16.4371 12.6104 16.431 12.8259C16.4739 12.793 16.5015 12.7781 16.5229 12.7541C16.8754 12.3978 16.9857 11.9787 16.8907 11.5146C16.86 11.4008 16.7957 11.2751 16.7068 11.1972ZM13.6911 12.5685C13.5593 12.4577 13.4459 12.3319 13.3141 12.2242C13.1701 12.1044 12.9954 12.0445 12.7901 12.0565C12.7747 12.2032 12.6675 12.2781 12.5449 12.3439C12.3702 12.4367 12.2017 12.5445 12.027 12.6373C12.0208 12.6403 12.0178 12.6433 12.0116 12.6463C12.0055 12.6433 12.0024 12.6403 11.9963 12.6373C11.8216 12.5445 11.6531 12.4367 11.4784 12.3439C11.3527 12.2781 11.2455 12.2032 11.2332 12.0565C11.0248 12.0445 10.8532 12.1044 10.7091 12.2242C10.5773 12.3319 10.464 12.4607 10.3322 12.5685C10.2494 12.6373 10.1513 12.6852 10.0318 12.7631C10.1912 12.4367 10.323 12.1403 10.4824 11.8559C10.5314 11.7721 10.6448 11.6913 10.749 11.6613C10.9237 11.6134 11.0585 11.5236 11.1842 11.4128C11.2608 11.344 11.3466 11.2781 11.4416 11.2362C11.6163 11.1583 11.7695 11.2392 11.8124 11.4338C11.6531 11.3589 11.4998 11.347 11.3742 11.4697C11.2271 11.6104 11.2577 11.787 11.2853 11.9547C11.2914 11.9817 11.3711 12.0176 11.414 12.0146C11.555 12.0026 11.6684 12.0415 11.7726 12.1164C11.8461 12.1703 11.9289 12.1853 12.0116 12.1733C12.0944 12.1853 12.1771 12.1703 12.2507 12.1164C12.358 12.0415 12.4714 12.0026 12.6093 12.0146C12.6522 12.0176 12.7318 11.9817 12.738 11.9547C12.7656 11.787 12.7962 11.6104 12.6491 11.4697C12.5235 11.3499 12.3702 11.3619 12.2108 11.4338C12.2538 11.2422 12.407 11.1583 12.5817 11.2362C12.6767 11.2781 12.7625 11.347 12.8391 11.4128C12.9648 11.5236 13.0965 11.6134 13.2743 11.6613C13.3785 11.6913 13.4919 11.7691 13.5409 11.8559C13.7003 12.1403 13.8321 12.4367 13.9914 12.7631C13.875 12.6882 13.7738 12.6373 13.6911 12.5685Z" fill="white"/>
<path d="M13.4768 14.7333C13.4737 14.7303 13.4615 14.7303 13.4584 14.7303C13.4461 14.9399 13.4461 15.1494 13.4124 15.356C13.3818 15.5596 13.3144 15.7572 13.2623 15.9548C13.2378 15.6255 13.2439 15.2962 13.1826 14.9758C13.106 14.5956 12.9773 14.2243 12.6432 13.9489C12.6003 13.9129 12.5696 13.892 12.5421 13.883C12.3704 13.7872 12.1804 13.7633 12.0088 13.7693C11.8372 13.7633 11.6472 13.7872 11.4755 13.883C11.448 13.892 11.4143 13.9129 11.3744 13.9489C11.0434 14.2273 10.9116 14.5986 10.835 14.9758C10.7707 15.2932 10.7798 15.6225 10.7553 15.9548C10.7063 15.7572 10.6389 15.5596 10.6052 15.356C10.5714 15.1494 10.5745 14.9399 10.5592 14.7303C10.5561 14.7303 10.5439 14.7273 10.5408 14.7333C10.3906 15.0177 10.1271 15.2213 9.89721 15.4518C9.31184 16.0386 8.94101 16.7093 9.0207 17.5266C9.03909 17.7033 9.10345 17.8799 9.17086 18.0536C9.15248 17.6763 9.2291 17.329 9.4804 17.0206C9.41911 17.335 9.45281 17.6314 9.66736 17.8919C9.72558 17.9637 9.78994 18.0356 9.86655 18.0895C10.2374 18.347 10.5132 18.6464 10.4734 19.1134C10.6358 18.9308 10.6481 18.6763 10.501 18.4637C10.4182 18.344 10.3048 18.2362 10.2129 18.1224C10.1148 17.9997 10.0075 17.8799 9.93091 17.7452C9.8359 17.5775 9.85737 17.4128 9.96769 17.2272C10.0106 17.3171 10.0504 17.4009 10.0903 17.4847C10.1025 17.4817 10.1148 17.4787 10.1271 17.4757C10.0596 17.2302 10.1485 17.0177 10.265 16.8051C10.3171 16.7123 10.3232 16.5985 10.3508 16.4907C10.4519 16.5626 10.4427 16.6763 10.4151 16.7931C10.3876 16.9099 10.3447 17.0296 10.3355 17.1464C10.3079 17.4967 10.4427 17.7931 10.7002 18.0566C11.025 18.3859 10.9913 18.9907 10.6419 19.2811C10.5377 19.3679 10.4243 19.4517 10.268 19.4008C10.1148 19.3529 10.1179 19.2302 10.1301 19.0984C9.98916 19.1972 9.9769 19.314 10.0137 19.4338C10.0504 19.5565 10.1516 19.6403 10.2956 19.6403C10.4029 19.6433 10.5193 19.6284 10.6113 19.5864C11.0342 19.4068 11.2457 19.0954 11.261 18.6793C11.261 18.6583 11.2641 18.6344 11.2671 18.6134C11.2671 18.6104 11.2733 18.6074 11.2763 18.6044C11.4878 18.7302 11.5797 18.9877 11.5981 19.5116C11.8525 19.0715 11.874 18.3739 11.1813 18.0086C10.6542 17.7302 10.4611 17.335 10.5623 16.7991C10.6052 16.5746 10.6021 16.344 10.4826 16.1285C10.4979 16.1225 10.5132 16.1135 10.5285 16.1075C10.5837 16.1913 10.6665 16.2692 10.691 16.359C10.7216 16.4728 10.694 16.5985 10.7063 16.7183C10.7247 16.9129 10.7369 17.1105 10.786 17.2991C10.8228 17.4428 10.9545 17.5386 11.12 17.5596C11.5246 17.6134 11.7238 17.841 11.8127 18.1763C11.8188 18.1973 11.828 18.2182 11.8402 18.2422C11.9628 18.0685 11.8985 17.6404 11.736 17.4368C11.6594 17.341 11.5797 17.2512 11.5062 17.1554C11.307 16.8919 11.3346 16.6674 11.6012 16.4548C11.6717 16.3979 11.7483 16.35 11.831 16.3051C11.8954 16.2692 11.9536 16.2333 12.0088 16.1943C12.064 16.2333 12.1253 16.2692 12.1866 16.3051C12.2662 16.35 12.3459 16.4009 12.4164 16.4548C12.683 16.6674 12.7106 16.8919 12.5114 17.1554C12.4379 17.2512 12.3582 17.344 12.2816 17.4368C12.1191 17.6404 12.0548 18.0685 12.1774 18.2422C12.1866 18.2182 12.1988 18.1973 12.2049 18.1763C12.2907 17.841 12.49 17.6134 12.8976 17.5596C13.06 17.5386 13.1948 17.4428 13.2316 17.2991C13.2806 17.1105 13.2929 16.9129 13.3113 16.7183C13.3236 16.5985 13.296 16.4728 13.3266 16.359C13.3511 16.2692 13.4308 16.1913 13.4891 16.1075C13.5044 16.1135 13.5197 16.1225 13.535 16.1285C13.4186 16.344 13.4155 16.5776 13.4554 16.7991C13.5565 17.335 13.3634 17.7302 12.8363 18.0086C12.1436 18.3739 12.162 19.0715 12.4195 19.5116C12.4348 18.9907 12.5267 18.7302 12.7413 18.6044C12.7443 18.6074 12.7505 18.6104 12.7505 18.6134C12.7535 18.6344 12.7566 18.6583 12.7566 18.6793C12.775 19.0984 12.9834 19.4068 13.4063 19.5864C13.5013 19.6284 13.6178 19.6433 13.722 19.6403C13.863 19.6373 13.9672 19.5565 14.0039 19.4338C14.0407 19.314 14.0284 19.1972 13.8875 19.0984C13.8997 19.2332 13.9028 19.3529 13.7496 19.4008C13.5933 19.4517 13.4799 19.3679 13.3757 19.2811C13.0232 18.9907 12.9926 18.3859 13.3174 18.0566C13.5749 17.7961 13.7097 17.4967 13.6821 17.1464C13.6729 17.0266 13.63 16.9099 13.6024 16.7931C13.5749 16.6733 13.5687 16.5626 13.6668 16.4907C13.6944 16.5985 13.7036 16.7123 13.7526 16.8051C13.8691 17.0177 13.961 17.2332 13.8905 17.4757C13.9028 17.4787 13.9151 17.4817 13.9273 17.4847C13.9672 17.4009 14.007 17.3171 14.0499 17.2272C14.1572 17.4128 14.1817 17.5775 14.0867 17.7452C14.0101 17.8799 13.9028 17.9997 13.8047 18.1224C13.7128 18.2392 13.5994 18.344 13.5166 18.4637C13.3695 18.6763 13.3818 18.9308 13.5442 19.1134C13.5044 18.6464 13.7802 18.347 14.151 18.0895C14.2277 18.0356 14.292 17.9637 14.3502 17.8919C14.5648 17.6284 14.5985 17.332 14.5372 17.0206C14.7854 17.329 14.862 17.6763 14.8467 18.0536C14.9141 17.8799 14.9785 17.7063 14.9969 17.5266C15.0766 16.7123 14.7027 16.0416 14.1204 15.4518C13.8905 15.2213 13.627 15.0207 13.4768 14.7333Z" fill="white"/>
<path d="M15.9375 6.93998C15.818 6.86812 15.6984 6.79329 15.5666 6.74538C15.4349 6.69748 15.2908 6.67352 15.1468 6.64359C14.8771 6.58969 14.6809 6.44897 14.5369 6.24539C14.4725 6.15558 14.4082 6.06277 14.3377 5.97593C14.1477 5.74242 13.8841 5.66456 13.5746 5.69749C13.4704 5.70947 13.3631 5.73642 13.3171 5.85019C13.4275 5.85619 13.5255 5.86216 13.6267 5.86816C13.6298 5.88312 13.6328 5.89809 13.6359 5.91607C13.5776 5.94 13.5194 5.96995 13.4581 5.98493C13.357 6.00886 13.2467 6.00886 13.1516 6.04181C13.0321 6.08372 12.9187 6.1376 12.8176 6.20646C12.7777 6.23341 12.787 6.31425 12.7716 6.37113C12.8482 6.38311 12.9279 6.41304 13.0015 6.40406C13.0444 6.39809 13.072 6.32323 13.1149 6.2903C13.1731 6.24839 13.2375 6.19151 13.3018 6.18851C13.498 6.17653 13.6941 6.18251 13.8903 6.18251L13.9056 6.19748C13.7952 6.23641 13.6849 6.27832 13.5715 6.31125C13.3968 6.36516 13.3141 6.46695 13.3264 6.63162C13.5255 6.43699 13.7585 6.40706 14.0251 6.4879C14.1048 6.51185 14.2182 6.5298 14.2825 6.49688C14.3867 6.44299 14.4542 6.47292 14.5246 6.52383C14.5951 6.57471 14.6656 6.62862 14.7147 6.69448C14.8127 6.8322 14.9506 6.88908 15.1253 6.89808C15.3276 6.91003 15.4962 6.99387 15.6371 7.12261C15.6831 7.16452 15.723 7.20945 15.772 7.24835C15.8701 7.32021 15.9651 7.29326 15.9988 7.18249C16.0386 7.08968 16.0356 6.99987 15.9375 6.93998Z" fill="white"/>
<path d="M14.4021 5.79921C14.7822 6.03872 15.1162 5.99981 15.4625 5.72137C15.5146 5.67945 15.6096 5.68245 15.6863 5.66747C15.6832 5.73633 15.7077 5.81716 15.674 5.87405C15.5943 6.01179 15.4901 6.13753 15.3982 6.27225C15.3798 6.30218 15.3829 6.34411 15.3737 6.38004C15.4135 6.37104 15.4656 6.37104 15.4871 6.35009C15.6464 6.16746 15.8089 5.98784 15.9468 5.79321C16.0234 5.68545 16.0203 5.5507 15.9222 5.43994C15.8242 5.32917 15.6893 5.29324 15.5361 5.3142C15.3522 5.33815 15.2174 5.43096 15.0978 5.5507C14.917 5.73035 14.4787 5.71538 14.3102 5.52677C14.2244 5.43096 14.2029 5.32917 14.2734 5.21541C14.3133 5.15252 14.347 5.08666 14.3715 5.02078C14.442 4.8112 14.3439 4.67948 14.1018 4.65253C14.0466 4.64655 13.9915 4.64655 13.9394 4.64355V4.64655H13.8781C13.5409 4.65853 13.4827 4.74234 13.6298 5.0118C13.8106 5.33215 14.0742 5.59263 14.4021 5.79921Z" fill="white"/>
<path d="M15.3308 7.67339C15.3921 7.5656 15.3492 7.44586 15.2174 7.38C15.1438 7.34407 15.055 7.32909 14.9845 7.29016C14.8527 7.21533 14.7056 7.14347 14.6075 7.04168C14.4696 6.89796 14.3164 6.81713 14.108 6.81713H13.7065C13.7034 6.8291 13.7004 6.84108 13.6973 6.85305C13.9609 6.90694 14.1264 7.06563 14.2735 7.25423C14.4543 7.48777 14.7148 7.64046 14.9875 7.7722C15.1193 7.83506 15.2664 7.78418 15.3308 7.67339Z" fill="white"/>
<path d="M14.9845 7.98492C14.9753 7.98492 14.963 7.9939 14.9263 8.01485C14.9906 8.0388 15.0304 8.06276 15.0734 8.06873C15.3492 8.11066 15.6158 8.09269 15.8763 7.98192C15.9744 7.94002 16.097 7.91606 16.2042 7.92204C16.4862 7.94002 16.6425 8.10466 16.7069 8.41005C16.7344 8.5358 16.7712 8.65854 16.8019 8.78428C16.8172 8.7813 16.8356 8.7783 16.8509 8.7753C16.8724 8.40705 16.7896 8.05976 16.5597 7.74839C16.4464 7.59272 16.2809 7.52684 16.0725 7.55079C15.8794 7.57174 15.7231 7.65558 15.5974 7.78132C15.4319 7.94299 15.2358 8.02383 14.9845 7.98492Z" fill="white"/>
<path d="M16.5721 8.91293C16.4741 8.80514 16.3883 8.69138 16.2963 8.57761C16.2074 8.46682 16.0971 8.40994 15.9377 8.42791C15.855 8.43689 15.7692 8.42191 15.6864 8.41294C15.5056 8.38898 15.3248 8.36206 15.144 8.3351C15.1379 8.34708 15.1348 8.35905 15.1286 8.37103C15.3616 8.61654 15.5914 8.86202 16.0113 8.81712C16.14 8.80514 16.2412 8.85905 16.3147 8.95784C16.3791 9.04167 16.4404 9.13148 16.517 9.20632C16.6304 9.31411 16.7744 9.28716 16.8418 9.17939C16.7499 9.08658 16.6518 9.00574 16.5721 8.91293Z" fill="white"/>
<path d="M12.5267 4.98492C12.729 5.14659 12.8179 5.12264 12.9405 4.90409C12.9834 4.82325 13.0692 4.76037 13.1213 4.68253C13.1611 4.62265 13.2163 4.54779 13.204 4.48793C13.1826 4.39212 13.0784 4.38314 12.9742 4.38314C12.7413 4.38912 12.5666 4.49391 12.4164 4.63462C12.1896 4.85018 12.159 5.17055 12.3551 5.42501C12.3643 5.24538 12.3153 5.06873 12.5267 4.98492Z" fill="white"/>
<path d="M16.673 9.63466C16.3972 9.53285 16.1153 9.44004 15.9375 9.19156C15.9161 9.25441 15.9007 9.3143 15.9099 9.37118C15.9651 9.68555 16.2164 9.83824 16.5137 9.94603C16.8477 10.0688 16.8876 10.1167 16.8906 10.449C17.0255 10.3771 17.0806 10.2814 17.0929 10.1646C17.1236 9.91308 17.004 9.75741 16.673 9.63466Z" fill="white"/>
<path d="M12.116 5.66468C12.0915 5.6557 12.067 5.64373 12.0455 5.63475V5.70061C12.0823 5.70361 12.1191 5.70661 12.1559 5.70661C12.1344 5.68266 12.1283 5.67068 12.116 5.66468Z" fill="white"/>
<path d="M15.0304 9.86794C15.0273 9.91884 15.0304 9.96375 15.0457 10.0027C15.1285 10.2631 15.294 10.4787 15.533 10.6464C15.7475 10.7961 15.9866 10.9188 16.0755 11.2002C16.195 10.8619 16.0509 10.5146 15.7475 10.344C15.4932 10.2033 15.202 10.1134 15.0304 9.86794Z" fill="white"/>
<path d="M12.4438 5.94612C12.4622 5.92814 12.4775 5.91616 12.4867 5.90119C12.6308 5.68263 12.7993 5.53294 13.1242 5.53894C13.3878 5.54191 13.5533 5.29643 13.4981 5.07488C12.9802 5.06888 12.4561 5.27248 12.4438 5.94612Z" fill="white"/>
<path d="M13.9702 9.68841C14.056 9.68541 14.148 9.65845 14.2276 9.62852C14.3257 9.58959 14.3839 9.52073 14.3533 9.40697C14.1081 9.49978 13.8752 9.63152 13.5595 9.52673C13.6453 9.4878 13.7005 9.46385 13.7863 9.42495C13.4308 9.38602 13.1427 9.4938 13.0569 9.69141C13.3665 9.69141 13.6699 9.69738 13.9702 9.68841Z" fill="white"/>
<path d="M13.1274 9.94008C13.1948 10.0538 13.2745 10.0927 13.3818 10.0628C13.489 10.0329 13.535 9.96103 13.4951 9.85024C13.4185 10.0029 13.2898 9.99696 13.1274 9.94008Z" fill="white"/>
<path d="M12.4685 6.82941C12.5696 6.41625 12.4593 6.17374 12.0854 5.97014C12.0701 5.96116 12.0578 5.95519 12.0455 5.94919V6.38032C12.2202 6.48211 12.3581 6.6348 12.4685 6.82941Z" fill="white"/>
<path d="M10.323 7.74227C10.2434 7.79018 10.1729 7.84406 10.1024 7.90094C9.89705 8.07162 9.68557 8.23329 9.49863 8.41891C9.39136 8.5207 9.31474 8.65242 9.24427 8.77816C9.15844 8.92788 9.10329 9.09253 9.02053 9.24523C8.9194 9.43085 8.76616 9.54462 8.51791 9.55062C8.28806 9.55659 8.14097 9.67636 8.10724 9.85001C8.41066 9.91887 8.8489 9.76917 9.04198 9.49671C9.15232 9.34104 9.21668 9.15841 9.29637 8.98477C9.37298 8.82009 9.42813 8.64644 9.57525 8.54466C9.61509 8.65542 9.62121 8.79014 9.7009 8.87098C9.7867 8.95781 9.93382 8.99972 10.0595 9.04763C10.1514 9.08055 10.2525 9.09253 10.3506 9.10751C10.556 9.14044 10.7429 9.2063 10.8961 9.33804C10.9084 9.34702 10.9207 9.35599 10.9298 9.36199C11.0739 9.46678 11.2271 9.55659 11.4202 9.46678C11.6255 9.37097 11.6869 9.19432 11.6501 9.0087C11.6194 8.84702 11.5397 8.69135 11.4815 8.54166C11.6531 8.6704 11.7359 8.862 11.7972 9.0626C11.8339 9.17937 11.8615 9.29911 11.8983 9.41287C11.9106 9.4518 11.9504 9.48176 11.978 9.51469C11.978 9.51469 11.9811 9.51469 11.9811 9.51169V9.51469C11.9903 9.50569 12.0025 9.49671 12.0117 9.48773C12.0209 9.49671 12.0332 9.50569 12.0424 9.51469V9.51169C12.0424 9.51169 12.0454 9.51169 12.0454 9.51469C12.073 9.48176 12.1098 9.4488 12.1251 9.41287C12.1649 9.29613 12.1894 9.17937 12.2262 9.0626C12.2875 8.862 12.3703 8.6734 12.5419 8.54166C12.4867 8.69435 12.407 8.84702 12.3733 9.0087C12.3366 9.19432 12.3948 9.36797 12.6032 9.46678C12.7963 9.55659 12.9464 9.46678 13.0935 9.36199C13.1058 9.35302 13.1181 9.34702 13.1273 9.33804C13.2805 9.2063 13.4674 9.14044 13.6728 9.10751C13.7708 9.09253 13.872 9.08055 13.9639 9.04763C14.0926 8.99972 14.2398 8.95781 14.3225 8.87098C14.4022 8.79014 14.4083 8.65242 14.4482 8.54466C14.5953 8.64644 14.6504 8.82009 14.727 8.98477C14.8067 9.15841 14.8711 9.34104 14.9814 9.49671C15.1745 9.76917 15.6128 9.91887 15.9161 9.85001C15.8824 9.67636 15.7353 9.55359 15.5055 9.55062C15.2573 9.54462 15.104 9.43085 15.0029 9.24523C14.9201 9.09253 14.865 8.92788 14.7791 8.77816C14.7086 8.65242 14.629 8.5207 14.5248 8.41891C14.3348 8.23627 14.1233 8.07162 13.921 7.90094C13.8505 7.84406 13.7801 7.78718 13.7004 7.74227C13.1947 7.43988 12.6338 7.30216 12.0454 7.28121H11.978C11.3896 7.30216 10.8287 7.43988 10.323 7.74227Z" fill="white"/>
<path d="M8.23582 7.24852C8.28485 7.21259 8.32469 7.16468 8.37068 7.12277C8.51166 6.99403 8.68022 6.9102 8.88248 6.89822C9.06023 6.88924 9.19509 6.83236 9.29316 6.69464C9.33912 6.62878 9.41269 6.57487 9.48316 6.52399C9.55366 6.47309 9.62107 6.44316 9.72527 6.49704C9.78963 6.52997 9.90302 6.51502 9.98271 6.48806C10.2493 6.40723 10.4823 6.43716 10.6815 6.63178C10.6968 6.46711 10.611 6.36532 10.4363 6.31141C10.3229 6.27848 10.2156 6.23658 10.1022 6.19765L10.1176 6.18267C10.3137 6.18267 10.5098 6.17369 10.706 6.18867C10.7704 6.19465 10.8378 6.24855 10.8929 6.29046C10.9358 6.32339 10.9634 6.39825 11.0063 6.40423C11.0799 6.4132 11.1596 6.38327 11.2362 6.3713C11.2239 6.31441 11.2301 6.23358 11.1902 6.20662C11.0891 6.13777 10.9757 6.08388 10.8562 6.04198C10.7612 6.00902 10.6508 6.00902 10.5497 5.98509C10.4884 5.97012 10.4332 5.94016 10.3719 5.91621C10.375 5.90126 10.3781 5.88628 10.3811 5.86833C10.4792 5.86233 10.5803 5.85635 10.6907 5.85035C10.6416 5.73659 10.5374 5.70963 10.4332 5.69766C10.1237 5.66473 9.86013 5.74556 9.67013 5.97609C9.59963 6.06293 9.53527 6.15274 9.47091 6.24555C9.32379 6.45213 9.13073 6.59285 8.86104 6.64373C8.72006 6.67069 8.57602 6.69464 8.44116 6.74555C8.30937 6.79345 8.18986 6.86829 8.07033 6.94015C7.97534 6.99703 7.9692 7.08984 7.99678 7.18266C8.04274 7.29342 8.13776 7.32037 8.23582 7.24852Z" fill="white"/>
<path d="M8.53331 6.3472C8.55171 6.37116 8.60686 6.36816 8.6467 6.37713C8.64059 6.34123 8.64363 6.2993 8.62219 6.26937C8.53331 6.13463 8.42604 6.00888 8.34638 5.87116C8.31572 5.81428 8.33716 5.73344 8.33412 5.66459C8.41073 5.68256 8.50573 5.67656 8.55783 5.71847C8.90414 5.99691 9.24127 6.03584 9.61823 5.79633C9.94308 5.58975 10.2097 5.32927 10.3844 5.00592C10.5315 4.73646 10.4702 4.65265 10.1362 4.64067H10.0749V4.63767C10.0197 4.64067 9.96455 4.64067 9.91245 4.64665C9.67034 4.6706 9.57225 4.80532 9.64275 5.0149C9.66727 5.08376 9.70097 5.14664 9.74081 5.20952C9.81131 5.32329 9.78984 5.42508 9.70404 5.52089C9.53548 5.71249 9.10029 5.72447 8.9164 5.54484C8.79689 5.42508 8.65896 5.33227 8.47814 5.30831C8.32491 5.28736 8.19007 5.32329 8.09198 5.43405C7.99392 5.54482 7.99085 5.67956 8.06747 5.78733C8.21152 5.98493 8.37394 6.16458 8.53331 6.3472Z" fill="white"/>
<path d="M9.75293 7.24833C9.90005 7.05973 10.0655 6.90105 10.3291 6.84715C10.326 6.83517 10.323 6.8232 10.3199 6.81122H9.91845C9.71004 6.81122 9.5568 6.89505 9.4189 7.03577C9.31774 7.14056 9.17372 7.20942 9.04193 7.28426C8.97143 7.32319 8.88255 7.33816 8.80901 7.37409C8.67722 7.43995 8.63433 7.5627 8.69562 7.66748C8.75998 7.78125 8.90707 7.82916 9.04193 7.7603C9.31163 7.63155 9.56906 7.47888 9.75293 7.24833Z" fill="white"/>
<path d="M7.21835 8.78416C7.25205 8.65842 7.28883 8.53568 7.31334 8.40994C7.3777 8.10455 7.53401 7.9399 7.81596 7.92192C7.92323 7.91595 8.04581 7.9369 8.14387 7.9818C8.40438 8.09257 8.67101 8.11055 8.94684 8.06862C8.98976 8.06264 9.03265 8.03869 9.09396 8.01473C9.05716 7.99678 9.04491 7.9848 9.03572 7.9848C8.78747 8.02073 8.58827 7.94288 8.42278 7.77823C8.29713 7.65246 8.13776 7.56865 7.94775 7.54767C7.73934 7.52374 7.57385 7.5896 7.46046 7.74527C7.23061 8.05664 7.14785 8.40394 7.1693 8.77219C7.18462 8.77819 7.20302 8.78119 7.21835 8.78416Z" fill="white"/>
<path d="M8.895 8.37103C8.88888 8.35905 8.88581 8.34708 8.8797 8.3351C8.69888 8.36206 8.51805 8.38898 8.33723 8.41294C8.25448 8.42491 8.16867 8.43689 8.08591 8.42791C7.92656 8.40994 7.81622 8.46682 7.72734 8.57761C7.6354 8.69138 7.54959 8.80514 7.45153 8.91293C7.36877 9.00274 7.27378 9.08658 7.17877 9.17639C7.2462 9.28716 7.39024 9.31111 7.50363 9.20334C7.5833 9.12848 7.64154 9.03867 7.7059 8.95484C7.77945 8.85605 7.88365 8.80214 8.0093 8.81412C8.43223 8.86202 8.66208 8.61654 8.895 8.37103Z" fill="white"/>
<path d="M11.0831 4.90416C11.2026 5.12571 11.2915 5.14966 11.4968 4.98499C11.7083 5.06883 11.6593 5.24248 11.6654 5.4251C11.8616 5.17062 11.8309 4.85325 11.6041 4.6347C11.4539 4.49398 11.2793 4.38621 11.0463 4.38321C10.9421 4.38021 10.8379 4.39219 10.8165 4.488C10.8042 4.54488 10.8594 4.62272 10.8992 4.6826C10.9544 4.76044 11.0402 4.82332 11.0831 4.90416Z" fill="white"/>
<path d="M7.50963 9.94603C7.80691 9.83824 8.05823 9.68555 8.11338 9.37118C8.12259 9.3143 8.10727 9.25441 8.08582 9.19156C7.90805 9.44004 7.62609 9.53285 7.35028 9.63466C7.0193 9.75741 6.89977 9.9101 6.9304 10.1646C6.94266 10.2814 7.0009 10.3741 7.13269 10.449C7.13269 10.1167 7.17253 10.0688 7.50963 9.94603Z" fill="white"/>
<path d="M11.978 5.63475C11.9535 5.64673 11.932 5.6557 11.9075 5.66468C11.8953 5.67068 11.8891 5.68266 11.8677 5.70661C11.9045 5.70661 11.9412 5.70361 11.978 5.70061V5.63475Z" fill="white"/>
<path d="M8.27876 10.344C7.97536 10.5176 7.83131 10.8649 7.95082 11.2002C8.03972 10.9188 8.27876 10.7961 8.49328 10.6464C8.72927 10.4817 8.89477 10.2661 8.98057 10.0027C8.99283 9.96075 8.99897 9.91884 8.9959 9.86794C8.82122 10.1134 8.53005 10.2033 8.27876 10.344Z" fill="white"/>
<path d="M10.8963 5.53894C11.2211 5.53294 11.3897 5.68263 11.5337 5.90119C11.5429 5.91616 11.5582 5.92514 11.5766 5.94612C11.5644 5.27248 11.0403 5.06888 10.5224 5.07488C10.4672 5.29643 10.6327 5.54191 10.8963 5.53894Z" fill="white"/>
<path d="M10.2372 9.42495C10.323 9.46385 10.3751 9.4878 10.464 9.52673C10.1483 9.63152 9.9154 9.49978 9.67022 9.40697C9.63652 9.52073 9.6978 9.58959 9.79587 9.62852C9.87555 9.66145 9.9675 9.68841 10.0533 9.68841C10.3567 9.69438 10.6571 9.69141 10.9697 9.69141C10.8839 9.4938 10.5927 9.38602 10.2372 9.42495Z" fill="white"/>
<path d="M10.5313 9.84717C10.4915 9.95794 10.5344 10.0298 10.6447 10.0597C10.752 10.0897 10.8317 10.0537 10.8991 9.93698C10.7336 9.99687 10.6049 10.0028 10.5313 9.84717Z" fill="white"/>
<path d="M11.9779 6.37723V5.94609C11.9656 5.95209 11.9503 5.96107 11.938 5.96705C11.5672 6.17065 11.4538 6.41613 11.5549 6.82631C11.6652 6.63471 11.8031 6.48202 11.9779 6.37723Z" fill="white"/>
<path d="M11.5611 13.6104C11.6776 13.6553 11.8093 13.6643 11.9411 13.6912C11.9656 13.6852 11.9902 13.6823 12.0116 13.6793C12.0361 13.6823 12.0607 13.6882 12.0821 13.6912C12.2139 13.6643 12.3457 13.6553 12.4621 13.6104C12.5142 13.5895 12.5694 13.4966 12.5602 13.4427C12.551 13.3919 12.4621 13.317 12.407 13.314C12.2752 13.311 12.1434 13.311 12.0116 13.314C11.8798 13.311 11.748 13.311 11.6163 13.314C11.5611 13.314 11.4722 13.3919 11.463 13.4427C11.4538 13.4966 11.5059 13.5895 11.5611 13.6104Z" fill="white"/>
</g>
<defs>
<clipPath id="clip0_1_2">
<rect width="24" height="24" fill="white"/>
</clipPath>
</defs>
</svg>
